# xmcd
# 
# Track frame offsets:
#     150
#     20560
#     42410
#     62810
# 
# Disc length: 1126
# 
# Revision: 9
# Processed by: cddbd v1.5.2PL0 Copyright (c) Steve Scherf et al.
# Submitted via: fre:ac v1.0.17
# 
DISCID=31046404
DTITLE=DEEN - LOVE FOREVER
DYEAR=1995
DGENRE=J-Pop
TTITLE0=LOVE FOREVER
TTITLE1=少年
TTITLE2=LOVE FOREVER(Original Karaoke)
TTITLE3=少年(Original Karaoke)
EXTD=
EXTT0=
EXTT1=
EXTT2=
EXTT3=
PLAYORDER=
